<?xml version="1.0" standalone="no"?>
<!DOCTYPE svg PUBLIC "-//W3C//DTD SVG 20010904//EN"
 "http://www.w3.org/TR/2001/REC-SVG-20010904/DTD/svg10.dtd">
<svg version="1.0" xmlns="http://www.w3.org/2000/svg"
 width="1000.000000pt" height="1000.000000pt" viewBox="0 0 1000.000000 1000.000000"
 preserveAspectRatio="xMidYMid meet">

<g transform="translate(0.000000,1000.000000) scale(0.100000,-0.100000)"
fill="#000000" stroke="none">
<path d="M3375 9750 l-250 -250 -1312 0 -1313 0 0 -1318 0 -1317 -250 -250
-250 -250 0 -70 0 -70 250 250 250 250 0 -1300 0 -1300 -215 -215 -215 -214
-35 34 -35 34 0 -70 0 -69 250 -250 250 -250 0 -1317 0 -1318 1318 0 1317 0
245 -245 245 -245 75 0 75 0 -245 245 -245 245 1720 0 1720 0 -245 -245 -245
-245 70 0 70 0 245 245 245 245 1293 -2 1292 -3 -236 -243 -236 -242 74 0 73
0 438 438 437 437 0 80 0 80 -245 -245 -245 -245 0 1300 0 1300 245 245 245
245 0 70 0 70 -245 -245 -245 -245 0 1715 0 1715 245 -245 245 -245 0 75 0 75
-245 245 -245 245 0 1317 0 1318 -1323 0 -1322 0 -250 250 -250 250 -69 0 -70
0 34 -35 34 -35 -214 -215 -215 -215 -1300 0 -1300 0 250 250 250 250 -70 0
-70 0 -250 -250z m3175 -75 l175 -175 -350 0 -350 0 175 175 c96 96 175 175
175 175 0 0 79 -79 175 -175z m-4218 -972 c-380 -384 -925 -932 -1211 -1218
l-521 -520 0 1218 0 1217 1211 0 1211 0 -690 -697z m1370 -1370 c-1133 -1138
-2295 -2302 -2581 -2588 l-521 -520 0 1298 0 1299 1282 1289 1281 1289 1300 0
1299 0 -2060 -2067z m4153 1037 l1030 -1030 -1300 -1303 c-715 -716 -2114
-2118 -3110 -3114 l-1810 -1813 -1032 1032 -1033 1033 0 444 0 443 2661 2669
2662 2669 451 0 451 0 1030 -1030z m1555 -187 l0 -1217 -1112 1109 c-612 610
-1162 1157 -1223 1217 l-110 108 1223 0 1222 0 0 -1217z m0 -3181 l0 -1814
-1292 -1299 -1291 -1299 -1821 0 -1821 0 -224 224 -225 225 3109 3116 3109
3116 228 -228 228 -228 0 -1813z m-8912 -1552 l-3 -169 -167 160 c-93 88 -168
166 -168 172 0 7 75 87 168 180 l167 167 3 -170 c1 -93 1 -246 0 -340z m8909
-2857 c-2 -2 -551 -2 -1221 -1 l-1217 3 1218 1224 1218 1224 3 -1223 c1 -673
1 -1225 -1 -1227z m-7587 1212 l1215 -1215 -1218 0 -1217 0 0 1215 c0 668 1
1215 3 1215 1 0 549 -547 1217 -1215z"/>
</g>
</svg>
